<?xml version="1.0" standalone="no"?>
<!DOCTYPE svg PUBLIC "-//W3C//DTD SVG 20010904//EN"
 "http://www.w3.org/TR/2001/REC-SVG-20010904/DTD/svg10.dtd">
<svg version="1.0" xmlns="http://www.w3.org/2000/svg"
 width="60.000000pt" height="66.000000pt" viewBox="0 0 60.000000 66.000000"
 preserveAspectRatio="xMidYMid meet">
<metadata>
Created by potrace 1.10, written by Peter Selinger 2001-2011
</metadata>
<g transform="translate(0.000000,66.000000) scale(0.100000,-0.100000)"
fill="#9d9d9d" fill-rule="nonzero" stroke="none">
<path d="M233 635 c-13 -13 -23 -35 -23 -47 0 -45 -14 -52 -87 -50 -64 2 -71
1 -93 -25 -30 -34 -35 -119 -7 -134 23 -13 47 -39 47 -50 0 -11 -33 -45 -50
-51 -9 -3 -14 -23 -14 -54 -1 -39 4 -55 24 -77 23 -26 30 -28 86 -25 69 3 94
-10 94 -49 0 -66 105 -99 155 -48 14 13 25 34 25 47 0 45 14 52 87 50 62 -2
71 0 92 22 18 19 24 38 25 71 1 41 -3 50 -32 73 -18 15 -32 32 -32 39 0 7 15
26 33 42 42 40 46 105 7 146 -22 23 -30 25 -93 23 -73 -2 -87 5 -87 50 0 13
-11 34 -25 47 -33 34 -100 34 -132 0z m97 -60 c0 -25 15 -59 35 -80 19 -20 77
-35 96 -25 17 10 69 14 69 6 0 -2 3 -11 6 -19 3 -8 -5 -26 -18 -39 -63 -66
-63 -110 0 -175 25 -27 24 -25 16 -47 -7 -18 -46 -21 -73 -6 -19 10 -77 -5
-96 -25 -20 -21 -35 -55 -35 -80 0 -21 -5 -25 -30 -25 -25 0 -30 4 -30 23 0
42 -24 76 -68 97 -32 15 -47 18 -62 10 -18 -10 -70 -14 -70 -6 0 2 -3 11 -6
19 -3 8 5 26 18 39 63 66 63 110 1 175 -26 27 -25 25 -17 47 7 18 46 21 74 6
15 -8 30 -5 62 10 44 21 68 55 68 97 0 19 5 23 30 23 25 0 30 -4 30 -25z"/>
<path d="M256 443 c-10 -3 -31 -17 -45 -31 -21 -22 -26 -35 -26 -82 0 -49 4
-60 30 -85 25 -26 36 -30 85 -30 49 0 60 4 85 30 26 25 30 36 30 85 0 48 -4
60 -27 83 -28 28 -91 42 -132 30z m75 -63 c14 0 28 -45 22 -70 -12 -44 -87
-47 -104 -4 -17 45 17 90 59 78 8 -2 18 -4 23 -4z"/>
</g>
</svg>
